<svg width="223" height="221" viewBox="0 0 223 221" fill="none" xmlns="http://www.w3.org/2000/svg">
<path d="M26.2824 63.1869L198.503 4.90597C203.083 3.35596 206.977 8.5634 204.195 12.5186L130.382 117.467C127.854 121.061 122.252 119.881 121.39 115.572L114.151 79.4096C113.694 77.1285 111.725 75.4637 109.399 75.3933L27.7338 72.9208C22.1637 72.7521 21.0038 64.9732 26.2824 63.1869Z" fill="#5724FF"/>
<path d="M193.537 147.469L24.4752 214.567C19.9811 216.351 15.8243 211.352 18.3979 207.258L86.7504 98.5494C89.0902 94.8282 94.7478 95.72 95.8295 99.9805L104.915 135.766C105.487 138.021 107.54 139.583 109.866 139.535L191.588 137.823C197.159 137.706 198.716 145.414 193.537 147.469Z" fill="#5724FF"/>
</svg>
